<svg width="74px" height="74px" xmlns="http://www.w3.org/2000/svg">
        <title>Amp Meter</title>
        <circle cx="36" cy="36" r="34" stroke="#979797" strokeWidth="5" fill="none" />
        <text x="52" y="34" fontFamily="Helvetica-Bold, Helvetica" fontSize="9" fontWeight="bold" fill="#000000">25</text>
        <text x="40" y="18" fontFamily="Helvetica-Bold, Helvetica" fontSize="9" fontWeight="bold" fill="#000000">15</text>
        <text x="15" y="19" fontFamily="Helvetica-Bold, Helvetica" fontSize="9" fontWeight="bold" fill="#000000">10</text>
        <text x="7" y="34" fontFamily="Helvetica-Bold, Helvetica" fontSize="9" fontWeight="bold" fill="#000000">5</text>
        <g transform="translate(33, 24)" fill="#FB0000">
            <path d="M7.902,1.381 L3.481,10.514 C3.093,11.454 2.409,12 1.657,12 C1.041,12 0.517,11.694 0.221,11.213 C-0.098,10.645 -0.075,9.946 0.312,9.356 L6.102,0.463 C6.398,0.026 6.991,-0.127 7.469,0.113 C7.948,0.354 8.130,0.900 7.902,1.381 Z"/>
        </g>
        <path id="Line" d="M36,6 C43.962,6 51.479,9.079 56.969,14.857 C62.594,20.778 66.158,29.314 66.869,37 L5.143,37 C6.649,22.114 19.889,6 36,6 Z" fill="none" stroke="#979797" />
        <text x="17.334" y="52" fontFamily="Helvetica-Bold, Helvetica" fontSize="15" fontWeight="bold" fill="#000000">AMP</text>
      </svg>