<?xml version="1.0" encoding="UTF-8"?>
<svg width="88px" height="41px" viewBox="0 0 88 41" version="1.1" xmlns="http://www.w3.org/2000/svg" xmlns:xlink="http://www.w3.org/1999/xlink">
    <title>Pipe</title>
    <g id="Page-1" stroke="none" stroke-width="1" fill="none" fill-rule="evenodd">
        <g id="Artboard" transform="translate(-193.000000, -793.000000)" fill-rule="nonzero">
            <g id="Left-Side-" transform="translate(11.000000, 638.000000)">
                <g id="Water-Tank-" transform="translate(109.839878, 0.000000)">
                    <g id="Pipe" transform="translate(72.160122, 155.000000)">
                        <polygon id="Path" fill="#AFAFAF" points="11 6 78 6 78 35 11 35"></polygon>
                        <path d="M79.6346154,37 L11.3653846,37 C10.6113035,37 10,36.4030463 10,35.6666667 L10,6.33333333 C10,5.59695367 10.6113035,5 11.3653846,5 L79.6346154,5 C80.3886965,5 81,5.59695367 81,6.33333333 L81,35.6666667 C81,36.4030463 80.3886965,37 79.6346154,37 Z M12.7307692,34.3333333 L78.2692308,34.3333333 L78.2692308,7.66666667 L12.7307692,7.66666667 L12.7307692,34.3333333 Z" id="Shape" fill="#000000"></path>
                        <polygon id="Path" fill="#E1E6E9" points="1 38 10 33.9285714 10 4.07142857 1 0"></polygon>
                        <path d="M1.5,41 C0.671572875,41 0,40.3880608 0,39.6331955 L0,1.36266947 C0.00157332247,0.888944318 0.272238272,0.449741666 0.715323243,0.201928621 C1.15840821,-0.0458844246 1.71072263,-0.066965997 2.175,0.146213469 L11.175,4.24662697 C11.6794195,4.47823233 11.998288,4.94840152 12,5.46308298 L12,35.532782 C11.998288,36.0474635 11.6794195,36.5176326 11.175,36.749238 L2.175,40.8496515 C1.96601655,40.9472193 1.73481338,40.9987171 1.5,41 Z M3,3.57689277 L3,37.4189722 L9,34.6853632 L9,6.31050177 L3,3.57689277 Z" id="Shape" fill="#000000"></path>
                        <polygon id="Path" fill="#E1E6E9" points="77 33.9285714 86 38 86 0 77 4.07142857"></polygon>
                        <path d="M86.5,41 C86.2651866,40.9987171 86.0339834,40.9472193 85.825,40.8496515 L76.825,36.749238 C76.3205805,36.5176326 76.001712,36.0474635 76,35.532782 L76,5.46308298 C76.001712,4.94840152 76.3205805,4.47823233 76.825,4.24662697 L85.825,0.146213469 C86.2892774,-0.066965997 86.8415918,-0.0458844246 87.2846768,0.201928621 C87.7277617,0.449741666 87.9984267,0.888944318 88,1.36266947 L88,39.6331955 C88,40.3880608 87.3284271,41 86.5,41 L86.5,41 Z M79,34.6853632 L85,37.4189722 L85,3.57689277 L79,6.31050177 L79,34.6853632 Z" id="Shape" fill="#000000"></path>
                    </g>
                </g>
            </g>
        </g>
    </g>
</svg>