<?xml version="1.0" encoding="UTF-8"?>
<svg width="35px" height="41px" viewBox="0 0 35 41" version="1.1" xmlns="http://www.w3.org/2000/svg" xmlns:xlink="http://www.w3.org/1999/xlink">
    <title>Pipe</title>
    <g id="Page-1" stroke="none" stroke-width="1" fill="none" fill-rule="evenodd">
        <g id="Artboard" transform="translate(-414.000000, -793.000000)" fill-rule="nonzero">
            <g id="Left-Side-" transform="translate(11.000000, 638.000000)">
                <g id="Pressure-Switch" transform="translate(397.000000, 71.000000)">
                    <g id="Pipe" transform="translate(6.000000, 84.000000)">
                        <polygon id="Path" fill="#AFAFAF" points="13 6 23 6 23 35 13 35"></polygon>
                        <path d="M22.7884615,37 L12.2115385,37 C12.094709,37 12,36.4030463 12,35.6666667 L12,6.33333333 C12,5.59695367 12.094709,5 12.2115385,5 L22.7884615,5 C22.905291,5 23,5.59695367 23,6.33333333 L23,35.6666667 C23,36.4030463 22.905291,37 22.7884615,37 Z M13,35 L23,35 L23,8 L13,8 L13,35 Z" id="Shape" fill="#000000"></path>
                        <polygon id="Path" fill="#E1E6E9" points="2 38 11 33.9285714 11 4.07142857 2 0"></polygon>
                        <path d="M1.5,41 C0.671572875,41 0,40.3880608 0,39.6331955 L0,1.36266947 C0.00157332247,0.888944318 0.272238272,0.449741666 0.715323243,0.201928621 C1.15840821,-0.0458844246 1.71072263,-0.066965997 2.175,0.146213469 L11.175,4.24662697 C11.6794195,4.47823233 11.998288,4.94840152 12,5.46308298 L12,35.532782 C11.998288,36.0474635 11.6794195,36.5176326 11.175,36.749238 L2.175,40.8496515 C1.96601655,40.9472193 1.73481338,40.9987171 1.5,41 Z M3,3.57689277 L3,37.4189722 L9,34.6853632 L9,6.31050177 L3,3.57689277 Z" id="Shape" fill="#000000"></path>
                        <polygon id="Path" fill="#E1E6E9" points="24 33.9285714 33 38 33 0 24 4.07142857"></polygon>
                        <path d="M33.5,41 C33.2651866,40.9987171 33.0339834,40.9472193 32.825,40.8496515 L23.825,36.749238 C23.3205805,36.5176326 23.001712,36.0474635 23,35.532782 L23,5.46308298 C23.001712,4.94840152 23.3205805,4.47823233 23.825,4.24662697 L32.825,0.146213469 C33.2892774,-0.066965997 33.8415918,-0.0458844246 34.2846768,0.201928621 C34.7277617,0.449741666 34.9984267,0.888944318 35,1.36266947 L35,39.6331955 C35,40.3880608 34.3284271,41 33.5,41 L33.5,41 Z M26,34.6853632 L32,37.4189722 L32,3.57689277 L26,6.31050177 L26,34.6853632 Z" id="Shape" fill="#000000"></path>
                    </g>
                </g>
            </g>
        </g>
    </g>
</svg>