<svg
  width="25px"
  height="25px"
  viewBox="0 0 25 25"
  version="1.1"
  xmlns="http://www.w3.org/2000/svg"
  xmlns:xlink="http://www.w3.org/1999/xlink"
>
  <title>Recycle</title>
  <g
    id="Page-1"
    stroke="none"
    stroke-width="1"
    fill="none"
    fill-rule="evenodd"
  >
    <g
      id="Artboard"
      transform="translate(-92.000000, -908.000000)"
      fill="#000000"
      fill-rule="nonzero"
    >
      <g
        id="Left-Side-"
        transform="translate(11.000000, 638.000000)"
      >
        <g
          id="AMP-Tank"
          transform="translate(0.000000, 209.476190)"
        >
          <g
            id="Recycle"
            transform="translate(81.000000, 60.523810)"
          >
            <path
              d="M23.8783627,13.4909934 C23.7417926,13.4521397 23.5949925,13.4677959 23.4702567,13.5345178 C23.3455209,13.6012396 23.2530671,13.7135617 23.2132342,13.8467743 C21.9022873,18.2176471 17.6148901,21.1936495 13.236306,20.9011767 L15.586248,18.6090061 C15.7256872,18.4776421 15.7816095,18.2831119 15.7325212,18.1001832 C15.6834328,17.9172546 15.5369731,17.7743955 15.349434,17.726514 C15.1618949,17.6786325 14.9624618,17.7331799 14.8277869,17.8691911 L11.6308788,20.9875059 C11.5301563,21.085643 11.4735616,21.218811 11.4735616,21.357675 C11.4735616,21.496539 11.5301563,21.629707 11.6308788,21.7278441 L14.8277869,24.8461589 C14.9281651,24.9446313 15.0646534,25 15.2070175,25 C15.3493816,25 15.4858699,24.9446313 15.586248,24.8461589 C15.7956466,24.6418465 15.7956466,24.3106562 15.586248,24.1063439 L13.3811323,21.9543928 C13.5275679,21.9611945 13.6745399,21.9711354 13.8209754,21.9711354 C18.4538103,21.9711354 22.8592141,18.7575969 24.2431106,14.1387239 C24.3260584,13.8613229 24.1627552,13.5708556 23.8783627,13.489947 L23.8783627,13.4909934 Z M4.68350382,6.89805973 L5.89039029,9.96771626 C5.95510725,10.1473366 6.1147472,10.2784885 6.30721634,10.3101588 C6.49968548,10.3418291 6.69460004,10.2690183 6.81614575,10.120047 C6.93769146,9.97107567 6.96668074,9.76946092 6.89183787,9.59362312 L5.2735372,5.4749362 C5.26602769,5.45505433 5.24993587,5.44197415 5.24028078,5.42366189 C5.22492227,5.39406363 5.20659538,5.36602231 5.18556859,5.33994875 C5.16074059,5.31020053 5.13248318,5.28334004 5.10135473,5.25989805 C5.0868721,5.2489107 5.07828979,5.23373769 5.06273437,5.22327354 C5.05200649,5.21699506 5.04020582,5.21647185 5.02894155,5.21071657 C4.99321098,5.19223657 4.95541336,5.17784034 4.91629881,5.16781358 C4.88840632,5.15996548 4.86105023,5.15211737 4.83208495,5.14897812 C4.79383999,5.14572959 4.75534432,5.14660691 4.71729664,5.15159416 C4.68687731,5.15389876 4.65672376,5.1588008 4.62718245,5.16624396 C4.61162702,5.17042962 4.5960716,5.16781358 4.58105257,5.17356886 L0.358559084,6.75208493 C0.174411614,6.81521087 0.0399542425,6.9709262 0.00748572149,7.15866364 C-0.0249827995,7.34640109 0.0496631098,7.53652383 0.202389058,7.65508144 C0.355115007,7.77363905 0.56181121,7.80191565 0.742080786,7.72891273 L3.62251651,6.65215235 C1.53701668,11.0988902 2.9450509,16.5951816 7.18256341,19.7061715 C7.29602032,19.7900078 7.43905996,19.8262677 7.58000814,19.8069219 C7.72095633,19.787576 7.8481828,19.7142208 7.933515,19.6030997 C8.11172996,19.3724791 8.06467367,19.0446259 7.82838177,18.8706096 C3.9352342,16.0123288 2.67256275,10.936696 4.68350382,6.89805973 L4.68350382,6.89805973 Z"
              id="Shape"
            >
              <animateTransform
                attributeType="xml"
                attributeName="transform"
                type="rotate"
                from="0 12.5 12.5"
                to="360 12.5 12.5"
                dur="4s"
                repeatCount="indefinite"
              />
            </path>
            <path
              d="M24.967797,4.16751422 L23.4543074,8.46037107 C23.4066801,8.59587791 23.3061336,8.70970366 23.1791274,8.76932667 C23.1103325,8.80184832 23.0309536,8.82352941 22.9568667,8.82352941 C22.8933637,8.82352941 22.8351525,8.81268886 22.7769414,8.79100777 L18.5804475,7.23538919 C18.4480205,7.18719311 18.3399298,7.08672322 18.2802805,6.95638498 C18.2206312,6.82604674 18.2143841,6.67667985 18.2629322,6.54159414 C18.3634787,6.26516018 18.6651182,6.11339251 18.9402981,6.21637771 L22.0731158,7.37631631 C21.0411911,4.97513501 19.0249689,2.94253234 16.5324738,1.86389785 C14.1616928,0.834045827 11.6903654,0.823205279 9.5788886,1.84763703 C9.31429251,1.97230333 8.9967772,1.85847758 8.875063,1.58746389 C8.74805688,1.3164502 8.86447916,0.991233767 9.12907525,0.86656747 C11.5157319,-0.28795085 14.2886989,-0.28795085 16.9505356,0.861147196 C19.6017884,2.01566552 21.7820601,4.15125339 22.9462829,6.70420236 L23.9729157,3.7989356 C24.0734622,3.51708136 24.3751018,3.37073397 24.6502817,3.47371917 C24.9254616,3.5712841 25.0683435,3.88565998 24.967797,4.16751422 L24.967797,4.16751422 Z"
              id="Path"
            >
              <animateTransform
                attributeType="xml"
                attributeName="transform"
                type="rotate"
                from="0 12.5 12.5"
                to="360 12.5 12.5"
                dur="4s"
                repeatCount="indefinite"
              />
            </path>
          </g>
        </g>
      </g>
    </g>
  </g>
</svg>
