<?xml version="1.0" encoding="UTF-8"?>
<svg width="84.2275854px" height="138.57695px" viewBox="0 0 84.2275854 138.57695" version="1.1" xmlns="http://www.w3.org/2000/svg" xmlns:xlink="http://www.w3.org/1999/xlink">
    <title>Shape</title>
    <g id="Page-1" stroke="none" stroke-width="1" fill="none" fill-rule="evenodd">
        <g id="Artboard" transform="translate(-194.779384, -658.999942)" fill="#ECE8D1" fill-rule="nonzero" stroke="#000000" stroke-width="2">
            <g id="Left-Side-" transform="translate(11.000000, 638.000000)">
                <g id="Water-Tank-" transform="translate(109.839878, 0.000000)">
                    <path d="M129.95549,44.0768928 L129.95549,34.9762951 L136.822616,34.9762951 C136.822616,34.9762951 136.822616,34.2713274 136.822616,33.4051999 C136.822616,32.5390724 136.794016,33.2431434 136.822616,32.524901 L136.822616,23.7803322 C136.822616,22.9641108 136.771196,22.8312423 136.822616,22.5768928 C136.852342,22.4298545 136.822616,24.4009608 136.822616,22 L98.9341605,22 C98.9341605,22.4922573 98.9341605,22.4922573 98.9341605,23.7803322 C98.9341605,24.6309368 98.9341605,25.2688902 98.9341605,25.6941924 C98.9341605,27.2121277 98.9341605,29.4890305 98.9341605,32.524901 C98.9341605,33.8126845 98.9341605,33.8126845 98.9341605,34.9762951 C101.830923,34.9762951 104.003495,34.9762951 105.451876,34.9762951 C105.670768,34.9762951 105.999106,34.9762951 106.43689,34.9762951 L106.43689,44.0768928 C97.0654621,44.3575934 75.1601221,57.9514836 75.1601221,67.3533525 L75.1601221,129.568044 C75.1673899,136.275171 74.6601221,141.627458 75.1601221,145.293111 L75.1601221,158.5662 C75.1601221,158.5662 77.6146357,158.555218 80.3583201,158.5662 C83.4068805,158.578403 86.8097537,158.5662 87.5421213,158.5662 L144.647796,158.5662 C145.247981,158.590258 147.710204,158.5662 148.353907,158.5662 C148.997611,158.5662 157.160117,158.5662 157.160122,158.5662 L157.160122,145.293111 C157.165463,143.357266 157.165463,136.363818 157.160117,129.566296 L157.160117,67.3516036 C157.154093,57.9420097 139.405869,44.3325692 129.95549,44.0768928 Z" id="Shape" transform="translate(116.051817, 90.288446) rotate(180.000000) translate(-116.051817, -90.288446) "></path>
                </g>
            </g>
        </g>
    </g>
</svg>